<?xml version="1.0" encoding="UTF-8" standalone="no"?>
<!-- Created with Inkscape (http://www.inkscape.org/) -->

<svg
   width="180mm"
   height="125mm"
   viewBox="0 0 180 125"
   version="1.1"
   id="svg5"
   inkscape:version="1.1.2 (0a00cf5339, 2022-02-04)"
   sodipodi:docname="logo.svg"
   xmlns:inkscape="http://www.inkscape.org/namespaces/inkscape"
   xmlns:sodipodi="http://sodipodi.sourceforge.net/DTD/sodipodi-0.dtd"
   xmlns="http://www.w3.org/2000/svg"
   xmlns:svg="http://www.w3.org/2000/svg">
  <sodipodi:namedview
     id="namedview7"
     pagecolor="#626262"
     bordercolor="#eeeeee"
     borderopacity="1"
     inkscape:pageshadow="0"
     inkscape:pageopacity="0"
     inkscape:pagecheckerboard="0"
     inkscape:document-units="mm"
     showgrid="true"
     inkscape:zoom="0.68328423"
     inkscape:cx="265.62884"
     inkscape:cy="316.12028"
     inkscape:window-width="1896"
     inkscape:window-height="915"
     inkscape:window-x="12"
     inkscape:window-y="44"
     inkscape:window-maximized="0"
     inkscape:current-layer="layer1">
    <inkscape:grid
       type="xygrid"
       id="grid882"
       color="#eaff3f"
       opacity="0.1254902"
       empcolor="#3ff1ff"
       empopacity="0.25098039"
       units="mm"
       spacingx="1"
       spacingy="1" />
  </sodipodi:namedview>
  <defs
     id="defs2">
    <rect
       x="75.590553"
       y="340.15747"
       width="566.92914"
       height="75.590553"
       id="rect39253" />
  </defs>
  <g
     inkscape:label="Calque 1"
     inkscape:groupmode="layer"
     id="layer1">
    <g
       id="g13426"
       style="display:inline"
       transform="translate(-35,-10)">
      <rect
         style="fill:#077efe;fill-opacity:1;stroke-width:0.98677;stroke-linecap:round;stroke-linejoin:round"
         id="rect928"
         width="24"
         height="71"
         x="54.999996"
         y="20" />
      <path
         style="fill:#077efe;fill-opacity:1;stroke:none;stroke-width:0.264583px;stroke-linecap:butt;stroke-linejoin:miter;stroke-opacity:1"
         d="m 91,20 h 25 v 52 c 0,5 10,5 10,0 V 20 h 24 v 63 c 0,6 -2,8 -9,8 h -41 c -7,0 -9,-2 -9,-8 z"
         id="path3502"
         sodipodi:nodetypes="ccccccccccc" />
      <path
         style="fill:#077efe;fill-opacity:1;stroke:none;stroke-width:0.264583px;stroke-linecap:butt;stroke-linejoin:miter;stroke-opacity:1"
         d="m 156,20 h 49 V 36 H 193 V 91 H 168 V 36 h -12 z"
         id="path10683"
         sodipodi:nodetypes="ccccccccc" />
    </g>
    <g
       id="g21528"
       transform="translate(-35,-10)">
      <path
         style="fill:#ff7b00;fill-opacity:1;stroke:none;stroke-width:0.264583px;stroke-linecap:butt;stroke-linejoin:miter;stroke-opacity:1"
         d="M 85.999999,65.999999 C 87,64 88,64 89.999999,63.999998 93,63 95,62 98,62 l 7,-2 12,-2e-6 L 126,59 v 6.999999 L 121,67 c -7,0 -12,0 -17,2.999999 v 10.999999 l 2,3 v 5 L 100,94 h -7 c -1,0 -2,-1 -2,-2 l -10e-7,-7.000002 -2.000001,-2.999999 v -8 l -2.999999,-4 z"
         id="path13461"
         sodipodi:nodetypes="cccccccccccccccccccc" />
      <path
         style="fill:#ff7b00;fill-opacity:1;stroke:none;stroke-width:0.264583px;stroke-linecap:butt;stroke-linejoin:miter;stroke-opacity:1"
         d="m 150,59 v 7 l 20,1.999998 c 7,2.000002 11.03008,5.223652 15,9 3.96992,3.776348 5,6.000002 7,9.000001 v 8 C 188,103 172,107 164,110 h -5 l -3,2 -13,2 c -3.48307,-0.0837 -7,0 -10,1 H 110 C 103.33236,113.65997 96,111 89.999999,111 88,109 85,108 83,108 L 72.999999,100 C 72,97 71,96 68.999999,93.999999 l 5,-3 v -1 l 2.999999,-1.000001 V 87 C 76,87 75.593896,85.781557 75,85 72.485894,84.287768 70,84 68.999999,83 h -8 C 60,84 58,85 55.999998,84.999998 v 4 L 57,91 56.999999,94.999999 62,100 v 2 c 6,5 10.847894,8.08547 17.999998,11 C 84,115 88,118 92,118 c 3,1 10,2 14,2 2,1 3,1 9,1 1,1 4,1 5,0 h 9 c 2,-1 4,-1 7,-1 h 3 l 4,-1 h 4 l 13,-3 22,-5 v -2 h 3 c 1,-3 2.97601,-3.491 7,-5 4.02399,-1.509 8,-4 10,-8 V 93.999999 C 204,90 204,87 204,83 l -4,-6.000002 V 75 l -3,-2.000001 V 71 l -5,-3.000002 -2,-2.999999 h -3 V 63.999998 L 174,60 c -2,0 -5,0 -7,-1 z"
         id="path14579"
         sodipodi:nodetypes="ccczccccccccccccccccccccccccccccccccccccccczcccccccccccccc" />
    </g>
    <path
       style="fill:#ff7b00;fill-opacity:1;stroke:none;stroke-width:0.264583px;stroke-linecap:butt;stroke-linejoin:miter;stroke-opacity:1"
       d="M 10.329199,37.544723 C 8.191375,41.209379 6.816968,47.775276 7.834856,51.643597 l 5.59839,21.275762 0.967081,-0.254473 -0.458139,2.188631 4.8354,-1.272361 -1.476024,-1.679687 3.868321,-1.017888 -0.45814,2.188632 7.736642,-2.03578 -1.476025,-1.679687 3.868321,-1.017888 -0.45814,2.18863 4.835401,-1.272361 -1.476016,-1.679686 0.967079,-0.254471 -5.598389,-21.275762 C 28.092729,42.176888 23.664656,37.137823 20,35 18.727639,30.164599 14.961364,19.781191 10.075154,16.93076 7.224722,21.816968 9.056838,32.709322 10.329199,37.544723 Z"
       id="path21723"
       sodipodi:nodetypes="cccccccccccccccccccc" />
    <text
       xml:space="preserve"
       transform="matrix(0.42099133,0,0,0.42099133,-13.37264,-43.38298)"
       id="text39251"
       style="font-style:normal;font-variant:normal;font-weight:bold;font-stretch:normal;font-size:40px;line-height:1.25;font-family:'Fira Mono';-inkscape-font-specification:'Fira Mono, Bold';font-variant-ligatures:normal;font-variant-caps:normal;font-variant-numeric:normal;font-variant-east-asian:normal;white-space:pre;shape-inside:url(#rect39253);fill:#077efe;fill-opacity:1;stroke:#fcfcfc;stroke-width:2.37535;stroke-miterlimit:4;stroke-dasharray:none;stroke-opacity:1;paint-order:stroke markers fill"><tspan
         x="75.589844"
         y="376.32487"
         id="tspan42469">L A U N C H E R</tspan></text>
  </g>
</svg>
