<?xml version="1.0" encoding="UTF-8" standalone="no"?>
<!-- Created with Inkscape (http://www.inkscape.org/) -->

<svg
   width="190mm"
   height="125mm"
   viewBox="0 0 190 125"
   version="1.1"
   id="svg5"
   xmlns="http://www.w3.org/2000/svg"
   xmlns:svg="http://www.w3.org/2000/svg">
  <defs
     id="defs2">
    <rect
       x="75.590553"
       y="340.15747"
       width="566.92914"
       height="75.590553"
       id="rect39253" />
  </defs>
  <g
     id="layer1">
    <g
       id="g13426"
       style="display:inline"
       transform="translate(-25,-10)">
      <rect
         style="fill:#077efe;fill-opacity:1;stroke-width:0.98677;stroke-linecap:round;stroke-linejoin:round"
         id="rect928"
         width="24"
         height="71"
         x="54.999996"
         y="20" />
      <path
         style="fill:#077efe;fill-opacity:1;stroke:none;stroke-width:0.264583px;stroke-linecap:butt;stroke-linejoin:miter;stroke-opacity:1"
         d="m 91,20 h 25 v 52 c 0,5 10,5 10,0 V 20 h 24 v 63 c 0,6 -2,8 -9,8 h -41 c -7,0 -9,-2 -9,-8 z"
         id="path3502" />
      <path
         style="fill:#077efe;fill-opacity:1;stroke:none;stroke-width:0.264583px;stroke-linecap:butt;stroke-linejoin:miter;stroke-opacity:1"
         d="m 156,20 h 49 V 36 H 193 V 91 H 168 V 36 h -12 z"
         id="path10683" />
    </g>
    <g
       id="g21528"
       transform="translate(-25,-10)">
      <path
         style="fill:#ff7b00;fill-opacity:1;stroke:none;stroke-width:0.264583px;stroke-linecap:butt;stroke-linejoin:miter;stroke-opacity:1"
         d="M 85.999999,65.999999 C 87,64 88,64 89.999999,63.999998 93,63 95,62 98,62 l 7,-2 12,-2e-6 L 126,59 v 6.999999 L 121,67 c -7,0 -12,0 -17,2.999999 v 10.999999 l 2,3 v 5 L 100,94 h -7 c -1,0 -2,-1 -2,-2 l -10e-7,-7.000002 -2.000001,-2.999999 v -8 l -2.999999,-4 z"
         id="path13461" />
      <path
         style="fill:#ff7b00;fill-opacity:1;stroke:none;stroke-width:0.264583px;stroke-linecap:butt;stroke-linejoin:miter;stroke-opacity:1"
         d="m 150,59 v 7 l 20,1.999998 c 7,2.000002 11.03008,5.223652 15,9 3.96992,3.776348 5,6.000002 7,9.000001 v 8 C 188,103 172,107 164,110 h -5 l -3,2 -13,2 c -3.48307,-0.0837 -7,0 -10,1 H 110 C 103.33236,113.65997 96,111 89.999999,111 88,109 85,108 83,108 L 72.999999,100 C 72,97 71,96 68.999999,93.999999 l 5,-3 v -1 l 2.999999,-1.000001 V 87 C 76,87 75.593896,85.781557 75,85 72.485894,84.287768 70,84 68.999999,83 h -8 C 60,84 58,85 55.999998,84.999998 v 4 L 57,91 56.999999,94.999999 62,100 v 2 c 6,5 10.847894,8.08547 17.999998,11 C 84,115 88,118 92,118 c 3,1 10,2 14,2 2,1 3,1 9,1 1,1 4,1 5,0 h 9 c 2,-1 4,-1 7,-1 h 3 l 4,-1 h 4 l 13,-3 22,-5 v -2 h 3 c 1,-3 2.97601,-3.491 7,-5 4.02399,-1.509 8,-4 10,-8 V 93.999999 C 204,90 204,87 204,83 l -4,-6.000002 V 75 l -3,-2.000001 V 71 l -5,-3.000002 -2,-2.999999 h -3 V 63.999998 L 174,60 c -2,0 -5,0 -7,-1 z"
         id="path14579" />
    </g>
    <text
       xml:space="preserve"
       transform="matrix(0.42099133,0,0,0.42099133,-3.37264,-43.38298)"
       id="text39251"
       style="font-style:normal;font-variant:normal;font-weight:bold;font-stretch:normal;font-size:40px;line-height:1.25;font-family:'Fira Mono';-inkscape-font-specification:'Fira Mono, Bold';font-variant-ligatures:normal;font-variant-caps:normal;font-variant-numeric:normal;font-variant-east-asian:normal;white-space:pre;shape-inside:url(#rect39253);fill:#077efe;fill-opacity:1;stroke:#fcfcfc;stroke-width:4.75069;stroke-miterlimit:4;stroke-dasharray:none;stroke-opacity:1;paint-order:stroke markers fill"><tspan
         x="75.589844"
         y="376.32487"
         id="tspan7014">L A U N C H E R</tspan></text>
    <g
       id="g6940"
       transform="rotate(-28.072487,-187,37.5)">
      <path
         style="fill:#ff7b00;fill-opacity:1;stroke:none;stroke-width:0.265;stroke-linecap:butt;stroke-linejoin:miter;stroke-miterlimit:4;stroke-dasharray:none;stroke-opacity:1"
         d="m -10,120 c 7,7 8,15 7,28 l 3,3 v 10 h -2 l -1.9999999,-6 H -5 l -0.9999998,4 H -14 l -1,-4 h -1 l -2,6 h -2 v -10 l 3,-3 c -1,-13 0,-21 7,-28 z"
         id="path1408" />
      <path
         style="fill:#ff7b00;fill-opacity:1;stroke:none;stroke-width:0.265;stroke-linecap:butt;stroke-linejoin:miter;stroke-miterlimit:4;stroke-dasharray:none;stroke-opacity:1"
         d="M -7.9999998,161 C -6,163 -6,166 -8.9999999,171 -11,168 -13,165 -11,162 c 0,1 1,4 2.0000001,4 C -7,164 -8,161 -7.9999998,161 Z"
         id="path2298" />
    </g>
  </g>
</svg>
